<svg width="19" height="20" viewBox="0 0 19 20" fill="none" xmlns="http://www.w3.org/2000/svg">
<path d="M18.125 0.625H0.875C0.460156 0.625 0.125 0.960156 0.125 1.375V18.625C0.125 19.0398 0.460156 19.375 0.875 19.375H18.125C18.5398 19.375 18.875 19.0398 18.875 18.625V1.375C18.875 0.960156 18.5398 0.625 18.125 0.625ZM15.9594 6.09766H14.4617C13.2875 6.09766 13.0602 6.65547 13.0602 7.47578V9.28281H15.8633L15.4977 12.1117H13.0602V19.375H10.1375V12.1141H7.69297V9.28281H10.1375V7.19687C10.1375 4.77578 11.6164 3.45625 13.7773 3.45625C14.8133 3.45625 15.7016 3.53359 15.9617 3.56875V6.09766H15.9594Z" fill="#B0BEC5"/>
</svg>
