<svg width="33" height="32" viewBox="0 0 33 32" fill="none" xmlns="http://www.w3.org/2000/svg">
<path d="M27.3371 4H6.00374C5.65012 4 5.31098 4.14048 5.06093 4.39052C4.81089 4.64057 4.67041 4.97971 4.67041 5.33333V26.6667C4.67041 27.0203 4.81089 27.3594 5.06093 27.6095C5.31098 27.8595 5.65012 28 6.00374 28H17.4904V18.72H14.3731V15.0867H17.4904V12.42C17.4904 9.32 19.3837 7.63067 22.1571 7.63067C23.0891 7.628 24.0224 7.676 24.9504 7.77333V11H23.0371C21.5331 11 21.2397 11.7173 21.2397 12.7667V15.08H24.8357L24.3691 18.7133H21.2384V28H27.3371C27.6907 28 28.0298 27.8595 28.2799 27.6095C28.5299 27.3594 28.6704 27.0203 28.6704 26.6667V5.33333C28.6704 4.97971 28.5299 4.64057 28.2799 4.39052C28.0298 4.14048 27.6907 4 27.3371 4Z" fill="#78909C"/>
</svg>
