<svg width="33" height="32" viewBox="0 0 33 32" fill="none" xmlns="http://www.w3.org/2000/svg">
<path d="M16.5 20C18.7091 20 20.5 18.2091 20.5 16C20.5 13.7909 18.7091 12 16.5 12C14.2909 12 12.5 13.7909 12.5 16C12.5 18.2091 14.2909 20 16.5 20Z" fill="#78909C"/>
<path d="M22 3.5H11C9.14348 3.5 7.36301 4.2375 6.05025 5.55025C4.7375 6.86301 4 8.64348 4 10.5V21.5C4 23.3565 4.7375 25.137 6.05025 26.4497C7.36301 27.7625 9.14348 28.5 11 28.5H22C23.8565 28.5 25.637 27.7625 26.9497 26.4497C28.2625 25.137 29 23.3565 29 21.5V10.5C29 8.64348 28.2625 6.86301 26.9497 5.55025C25.637 4.2375 23.8565 3.5 22 3.5ZM16.5 22C15.3133 22 14.1533 21.6481 13.1666 20.9888C12.1799 20.3295 11.4108 19.3925 10.9567 18.2961C10.5026 17.1997 10.3838 15.9933 10.6153 14.8295C10.8468 13.6656 11.4182 12.5965 12.2574 11.7574C13.0965 10.9182 14.1656 10.3468 15.3295 10.1153C16.4933 9.88378 17.6997 10.0026 18.7961 10.4567C19.8925 10.9108 20.8295 11.6799 21.4888 12.6666C22.1481 13.6533 22.5 14.8133 22.5 16C22.5 17.5913 21.8679 19.1174 20.7426 20.2426C19.6174 21.3679 18.0913 22 16.5 22ZM23 11C22.7033 11 22.4133 10.912 22.1666 10.7472C21.92 10.5824 21.7277 10.3481 21.6142 10.074C21.5007 9.79994 21.4709 9.49834 21.5288 9.20736C21.5867 8.91639 21.7296 8.64912 21.9393 8.43934C22.1491 8.22956 22.4164 8.0867 22.7074 8.02882C22.9983 7.97094 23.2999 8.00065 23.574 8.11418C23.8481 8.22771 24.0824 8.41997 24.2472 8.66665C24.412 8.91332 24.5 9.20333 24.5 9.5C24.5 9.89782 24.342 10.2794 24.0607 10.5607C23.7794 10.842 23.3978 11 23 11Z" fill="#78909C"/>
</svg>
