<svg width="66" height="13" viewBox="0 0 66 13" fill="none" xmlns="http://www.w3.org/2000/svg">
<path d="M3.08097 0.363636V12H0.620739V0.363636H3.08097ZM14.8381 0.363636V12H12.7131L7.65057 4.67614H7.56534V12H5.10511V0.363636H7.2642L12.2869 7.68182H12.3892V0.363636H14.8381ZM18.973 0.363636L21.7855 9.20455H21.8935L24.7116 0.363636H27.4389L23.4276 12H20.2571L16.2401 0.363636H18.973ZM38.8764 6.18182C38.8764 7.45076 38.6359 8.5303 38.1548 9.42045C37.6776 10.3106 37.026 10.9905 36.2003 11.4602C35.3783 11.9261 34.4541 12.1591 33.4276 12.1591C32.3935 12.1591 31.4654 11.9242 30.6435 11.4545C29.8215 10.9848 29.1719 10.3049 28.6946 9.41477C28.2173 8.52462 27.9787 7.44697 27.9787 6.18182C27.9787 4.91288 28.2173 3.83333 28.6946 2.94318C29.1719 2.05303 29.8215 1.375 30.6435 0.909091C31.4654 0.439394 32.3935 0.204545 33.4276 0.204545C34.4541 0.204545 35.3783 0.439394 36.2003 0.909091C37.026 1.375 37.6776 2.05303 38.1548 2.94318C38.6359 3.83333 38.8764 4.91288 38.8764 6.18182ZM36.3821 6.18182C36.3821 5.35985 36.259 4.66667 36.0128 4.10227C35.7704 3.53788 35.4276 3.10985 34.9844 2.81818C34.5412 2.52652 34.0223 2.38068 33.4276 2.38068C32.8329 2.38068 32.3139 2.52652 31.8707 2.81818C31.4276 3.10985 31.0829 3.53788 30.8366 4.10227C30.5942 4.66667 30.473 5.35985 30.473 6.18182C30.473 7.00379 30.5942 7.69697 30.8366 8.26136C31.0829 8.82576 31.4276 9.25379 31.8707 9.54545C32.3139 9.83712 32.8329 9.98295 33.4276 9.98295C34.0223 9.98295 34.5412 9.83712 34.9844 9.54545C35.4276 9.25379 35.7704 8.82576 36.0128 8.26136C36.259 7.69697 36.3821 7.00379 36.3821 6.18182ZM43.1591 0.363636V12H40.6989V0.363636H43.1591ZM55.4503 4.4375H52.9616C52.9162 4.11553 52.8234 3.82955 52.6832 3.57955C52.5431 3.32576 52.3632 3.10985 52.1435 2.93182C51.9238 2.75379 51.67 2.61742 51.3821 2.52273C51.098 2.42803 50.7893 2.38068 50.456 2.38068C49.8537 2.38068 49.3291 2.5303 48.8821 2.82955C48.4351 3.125 48.0885 3.55682 47.8423 4.125C47.5961 4.68939 47.473 5.375 47.473 6.18182C47.473 7.01136 47.5961 7.70833 47.8423 8.27273C48.0923 8.83712 48.4408 9.26326 48.8878 9.55114C49.3348 9.83902 49.8518 9.98295 50.4389 9.98295C50.7685 9.98295 51.0734 9.93939 51.3537 9.85227C51.6378 9.76515 51.8897 9.63826 52.1094 9.47159C52.3291 9.30114 52.5109 9.0947 52.6548 8.85227C52.8026 8.60985 52.9048 8.33333 52.9616 8.02273L55.4503 8.03409C55.3859 8.56818 55.2249 9.08333 54.9673 9.57955C54.7135 10.072 54.3707 10.5133 53.9389 10.9034C53.5109 11.2898 52.9995 11.5966 52.4048 11.8239C51.8139 12.0473 51.1454 12.1591 50.3991 12.1591C49.3613 12.1591 48.4332 11.9242 47.6151 11.4545C46.8007 10.9848 46.1567 10.3049 45.6832 9.41477C45.2135 8.52462 44.9787 7.44697 44.9787 6.18182C44.9787 4.91288 45.2173 3.83333 45.6946 2.94318C46.1719 2.05303 46.8196 1.375 47.6378 0.909091C48.456 0.439394 49.3764 0.204545 50.3991 0.204545C51.0734 0.204545 51.6984 0.299242 52.2741 0.488636C52.8537 0.67803 53.367 0.954545 53.8139 1.31818C54.2609 1.67803 54.6245 2.11932 54.9048 2.64205C55.1889 3.16477 55.3707 3.76326 55.4503 4.4375ZM57.2145 12V0.363636H65.0554V2.39205H59.6747V5.16477H64.652V7.19318H59.6747V9.97159H65.0781V12H57.2145Z" fill="url(#paint0_linear_6622_22606)"/>
<defs>
<linearGradient id="paint0_linear_6622_22606" x1="7" y1="6" x2="66" y2="6" gradientUnits="userSpaceOnUse">
<stop stop-color="#47BAB3"/>
<stop offset="1" stop-color="#9BCE82"/>
</linearGradient>
</defs>
</svg>
