<svg width="123" height="9" viewBox="0 0 123 9" fill="none" xmlns="http://www.w3.org/2000/svg">
<path d="M0.550426 8V0.727273H3.55469C4.0992 0.727273 4.56913 0.833807 4.96449 1.04688C5.36222 1.25758 5.6688 1.55232 5.88423 1.93111C6.09967 2.30753 6.20739 2.7455 6.20739 3.24503C6.20739 3.74692 6.0973 4.18608 5.87713 4.5625C5.65933 4.93655 5.34801 5.22656 4.94318 5.43253C4.53835 5.63849 4.05777 5.74148 3.50142 5.74148H1.64773V4.35653H3.17472C3.43987 4.35653 3.66122 4.31037 3.83878 4.21804C4.0187 4.12571 4.15483 3.99669 4.24716 3.83097C4.33949 3.66288 4.38565 3.46757 4.38565 3.24503C4.38565 3.02012 4.33949 2.82599 4.24716 2.66264C4.15483 2.49692 4.0187 2.36908 3.83878 2.27912C3.65885 2.18916 3.4375 2.14418 3.17472 2.14418H2.30824V8H0.550426ZM7.76811 8H5.87891L8.33274 0.727273H10.6729L13.1268 8H11.2376L9.52947 2.55966H9.47266L7.76811 8ZM7.51598 5.13778H11.4648V6.47301H7.51598V5.13778ZM12.8054 0.727273H14.7692L16.3068 3.7706H16.3707L17.9084 0.727273H19.8722L17.2124 5.57102V8H15.4652V5.57102L12.8054 0.727273ZM20.609 0.727273H22.7859L24.6325 5.23011H24.7177L26.5643 0.727273H28.7411V8H27.0295V3.53267H26.9691L25.2219 7.95384H24.1282L22.381 3.50781H22.3207V8H20.609V0.727273ZM29.8375 8V0.727273H34.9086V2.15483H31.5953V3.64631H34.6493V5.07741H31.5953V6.57244H34.9086V8H29.8375ZM42.199 0.727273V8H40.7076L37.8134 3.80256H37.7672V8H36.0094V0.727273H37.5222L40.3844 4.91761H40.4448V0.727273H42.199ZM43.0664 2.15483V0.727273H49.2134V2.15483H47.0082V8H45.2752V2.15483H43.0664ZM53.9782 0.727273V8H52.2203V0.727273H53.9782ZM61.2713 0.727273V8H59.7798L56.8857 3.80256H56.8395V8H55.0817V0.727273H56.5945L59.4567 4.91761H59.517V0.727273H61.2713ZM62.3766 8V0.727273H67.3411V2.15483H64.1344V3.64631H67.025V5.07741H64.1344V8H62.3766ZM75.0906 4.36364C75.0906 5.16383 74.9367 5.84209 74.6289 6.39844C74.3211 6.95478 73.9045 7.37737 73.3789 7.66619C72.8557 7.95502 72.2686 8.09943 71.6175 8.09943C70.9641 8.09943 70.3758 7.95384 69.8526 7.66264C69.3294 7.37145 68.9139 6.94886 68.6062 6.39489C68.3008 5.83854 68.1481 5.16146 68.1481 4.36364C68.1481 3.56345 68.3008 2.88518 68.6062 2.32884C68.9139 1.77249 69.3294 1.34991 69.8526 1.06108C70.3758 0.772254 70.9641 0.627841 71.6175 0.627841C72.2686 0.627841 72.8557 0.772254 73.3789 1.06108C73.9045 1.34991 74.3211 1.77249 74.6289 2.32884C74.9367 2.88518 75.0906 3.56345 75.0906 4.36364ZM73.2937 4.36364C73.2937 3.89015 73.2262 3.49006 73.0913 3.16335C72.9587 2.83665 72.7669 2.58925 72.516 2.42116C72.2674 2.25308 71.9679 2.16903 71.6175 2.16903C71.2695 2.16903 70.9701 2.25308 70.7191 2.42116C70.4682 2.58925 70.2752 2.83665 70.1403 3.16335C70.0077 3.49006 69.9414 3.89015 69.9414 4.36364C69.9414 4.83712 70.0077 5.23722 70.1403 5.56392C70.2752 5.89062 70.4682 6.13802 70.7191 6.30611C70.9701 6.4742 71.2695 6.55824 71.6175 6.55824C71.9679 6.55824 72.2674 6.4742 72.516 6.30611C72.7669 6.13802 72.9587 5.89062 73.0913 5.56392C73.2262 5.23722 73.2937 4.83712 73.2937 4.36364ZM76.1168 8V0.727273H79.1211C79.6656 0.727273 80.1355 0.825521 80.5309 1.02202C80.9286 1.21615 81.2352 1.4955 81.4506 1.86009C81.6661 2.2223 81.7738 2.65199 81.7738 3.14915C81.7738 3.65341 81.6637 4.08191 81.4435 4.43466C81.2234 4.78504 80.9109 5.05256 80.506 5.23722C80.1012 5.41951 79.6218 5.51065 79.0678 5.51065H77.168V4.12571H78.7411C79.0063 4.12571 79.2276 4.09138 79.4052 4.02273C79.5851 3.9517 79.7212 3.84517 79.8136 3.70312C79.9059 3.55871 79.9521 3.37405 79.9521 3.14915C79.9521 2.92424 79.9059 2.7384 79.8136 2.59162C79.7212 2.44247 79.5851 2.3312 79.4052 2.25781C79.2253 2.18205 79.0039 2.14418 78.7411 2.14418H77.8746V8H76.1168ZM80.2113 4.67614L82.0224 8H80.1048L78.3292 4.67614H80.2113ZM82.7379 0.727273H84.9148L86.7614 5.23011H86.8466L88.6932 0.727273H90.87V8H89.1584V3.53267H89.098L87.3509 7.95384H86.2571L84.5099 3.50781H84.4496V8H82.7379V0.727273ZM93.5396 8H91.6504L94.1042 0.727273H96.4444L98.8983 8H97.0091L95.301 2.55966H95.2441L93.5396 8ZM93.2875 5.13778H97.2363V6.47301H93.2875V5.13778ZM98.5352 2.15483V0.727273H104.682V2.15483H102.477V8H100.744V2.15483H98.5352ZM107.298 0.727273V8H105.541V0.727273H107.298ZM115.266 4.36364C115.266 5.16383 115.112 5.84209 114.805 6.39844C114.497 6.95478 114.08 7.37737 113.555 7.66619C113.031 7.95502 112.444 8.09943 111.793 8.09943C111.14 8.09943 110.552 7.95384 110.028 7.66264C109.505 7.37145 109.09 6.94886 108.782 6.39489C108.477 5.83854 108.324 5.16146 108.324 4.36364C108.324 3.56345 108.477 2.88518 108.782 2.32884C109.09 1.77249 109.505 1.34991 110.028 1.06108C110.552 0.772254 111.14 0.627841 111.793 0.627841C112.444 0.627841 113.031 0.772254 113.555 1.06108C114.08 1.34991 114.497 1.77249 114.805 2.32884C115.112 2.88518 115.266 3.56345 115.266 4.36364ZM113.469 4.36364C113.469 3.89015 113.402 3.49006 113.267 3.16335C113.134 2.83665 112.943 2.58925 112.692 2.42116C112.443 2.25308 112.144 2.16903 111.793 2.16903C111.445 2.16903 111.146 2.25308 110.895 2.42116C110.644 2.58925 110.451 2.83665 110.316 3.16335C110.183 3.49006 110.117 3.89015 110.117 4.36364C110.117 4.83712 110.183 5.23722 110.316 5.56392C110.451 5.89062 110.644 6.13802 110.895 6.30611C111.146 6.4742 111.445 6.55824 111.793 6.55824C112.144 6.55824 112.443 6.4742 112.692 6.30611C112.943 6.13802 113.134 5.89062 113.267 5.56392C113.402 5.23722 113.469 4.83712 113.469 4.36364ZM122.482 0.727273V8H120.991L118.097 3.80256H118.05V8H116.293V0.727273H117.805L120.668 4.91761H120.728V0.727273H122.482Z" fill="url(#paint0_linear_6660_5354)"/>
<defs>
<linearGradient id="paint0_linear_6660_5354" x1="66.7627" y1="4" x2="152.034" y2="4" gradientUnits="userSpaceOnUse">
<stop stop-color="#47BAB3"/>
<stop offset="1" stop-color="#9BCE82"/>
</linearGradient>
</defs>
</svg>
