<svg width="127" height="9" viewBox="0 0 127 9" fill="none" xmlns="http://www.w3.org/2000/svg">
<path d="M0.3125 2.15483V0.727273H6.45952V2.15483H4.25426V8H2.52131V2.15483H0.3125ZM7.318 8V0.727273H12.389V2.15483H9.07582V3.64631H12.1298V5.07741H9.07582V6.57244H12.389V8H7.318ZM13.4899 8V0.727273H16.4941C17.0386 0.727273 17.5086 0.825521 17.9039 1.02202C18.3017 1.21615 18.6083 1.4955 18.8237 1.86009C19.0391 2.2223 19.1468 2.65199 19.1468 3.14915C19.1468 3.65341 19.0368 4.08191 18.8166 4.43466C18.5964 4.78504 18.2839 5.05256 17.8791 5.23722C17.4743 5.41951 16.9949 5.51065 16.4409 5.51065H14.541V4.12571H16.1142C16.3793 4.12571 16.6007 4.09138 16.7782 4.02273C16.9582 3.9517 17.0943 3.84517 17.1866 3.70312C17.2789 3.55871 17.3251 3.37405 17.3251 3.14915C17.3251 2.92424 17.2789 2.7384 17.1866 2.59162C17.0943 2.44247 16.9582 2.3312 16.7782 2.25781C16.5983 2.18205 16.377 2.14418 16.1142 2.14418H15.2477V8H13.4899ZM17.5843 4.67614L19.3954 8H17.4778L15.7022 4.67614H17.5843ZM20.111 0.727273H22.2878L24.1344 5.23011H24.2196L26.0662 0.727273H28.2431V8H26.5314V3.53267H26.4711L24.7239 7.95384H23.6301L21.883 3.50781H21.8226V8H20.111V0.727273ZM33.2706 2.90767C33.2469 2.64725 33.1416 2.44484 32.9545 2.30043C32.7699 2.15365 32.5059 2.08026 32.1626 2.08026C31.9354 2.08026 31.746 2.10985 31.5945 2.16903C31.4429 2.22822 31.3293 2.3099 31.2536 2.41406C31.1778 2.51586 31.1387 2.63305 31.1364 2.76562C31.1316 2.87453 31.1529 2.97041 31.2003 3.05327C31.25 3.13613 31.321 3.20952 31.4134 3.27344C31.508 3.33499 31.6217 3.38944 31.7543 3.43679C31.8868 3.48414 32.036 3.52557 32.2017 3.56108L32.8267 3.70312C33.1866 3.78125 33.5038 3.88542 33.7784 4.01562C34.0554 4.14583 34.2874 4.3009 34.4744 4.48082C34.6638 4.66075 34.8071 4.8679 34.9041 5.10227C35.0012 5.33665 35.0509 5.59943 35.0533 5.89062C35.0509 6.34991 34.9349 6.74408 34.7053 7.07315C34.4756 7.40223 34.1454 7.65436 33.7145 7.82955C33.286 8.00473 32.7687 8.09233 32.1626 8.09233C31.5542 8.09233 31.0239 8.00118 30.5717 7.81889C30.1196 7.6366 29.768 7.35961 29.517 6.98793C29.2661 6.61624 29.1371 6.14631 29.13 5.57812H30.8132C30.8274 5.8125 30.8902 6.00781 31.0014 6.16406C31.1127 6.32031 31.2654 6.43868 31.4595 6.51918C31.656 6.59967 31.8833 6.63991 32.1413 6.63991C32.3781 6.63991 32.5793 6.60795 32.745 6.54403C32.9131 6.48011 33.0421 6.39134 33.1321 6.2777C33.2221 6.16406 33.2682 6.03385 33.2706 5.88707C33.2682 5.74976 33.2256 5.63258 33.1428 5.53551C33.0599 5.43608 32.9321 5.35085 32.7592 5.27983C32.5888 5.20644 32.371 5.13897 32.1058 5.07741L31.3459 4.89986C30.7161 4.75544 30.2202 4.52225 29.858 4.20028C29.4957 3.87595 29.3158 3.43797 29.3182 2.88636C29.3158 2.43655 29.4366 2.04238 29.6804 1.70384C29.9242 1.36529 30.2616 1.10133 30.6925 0.911932C31.1233 0.722538 31.6146 0.627841 32.1662 0.627841C32.7296 0.627841 33.2185 0.723721 33.6328 0.915483C34.0495 1.10488 34.3726 1.37121 34.6023 1.71449C34.8319 2.05777 34.9491 2.45549 34.9538 2.90767H33.2706ZM39.6626 8H37.7734L40.2273 0.727273H42.5675L45.0213 8H43.1321L41.424 2.55966H41.3672L39.6626 8ZM39.4105 5.13778H43.3594V6.47301H39.4105V5.13778ZM51.994 0.727273V8H50.5025L47.6083 3.80256H47.5621V8H45.8043V0.727273H47.3171L50.1793 4.91761H50.2397V0.727273H51.994ZM55.7875 8H53.0993V0.727273H55.7839C56.5249 0.727273 57.1629 0.872869 57.698 1.16406C58.2354 1.45289 58.6497 1.86955 58.9409 2.41406C59.2321 2.9562 59.3777 3.60488 59.3777 4.36009C59.3777 5.11766 59.2321 5.7687 58.9409 6.31321C58.652 6.85772 58.2389 7.27557 57.7015 7.56676C57.1641 7.85559 56.5261 8 55.7875 8ZM54.8571 6.50142H55.72C56.1272 6.50142 56.4717 6.43277 56.7534 6.29545C57.0375 6.15578 57.2517 5.92969 57.3961 5.61719C57.5429 5.30232 57.6163 4.88329 57.6163 4.36009C57.6163 3.83688 57.5429 3.42022 57.3961 3.11009C57.2493 2.79759 57.0327 2.57268 56.7463 2.43537C56.4622 2.29569 56.1118 2.22585 55.6951 2.22585H54.8571V6.50142ZM69.1539 3.36222H67.3784C67.3547 3.17992 67.3062 3.01539 67.2328 2.86861C67.1594 2.72183 67.0623 2.59635 66.9416 2.49219C66.8208 2.38802 66.6776 2.30871 66.5119 2.25426C66.3485 2.19744 66.1674 2.16903 65.9686 2.16903C65.6158 2.16903 65.3116 2.25544 65.0559 2.42827C64.8026 2.60109 64.6073 2.85085 64.47 3.17756C64.335 3.50426 64.2676 3.89962 64.2676 4.36364C64.2676 4.84659 64.3362 5.25142 64.4735 5.57812C64.6132 5.90246 64.8085 6.14749 65.0595 6.31321C65.3128 6.47656 65.6123 6.55824 65.9579 6.55824C66.152 6.55824 66.3284 6.53338 66.487 6.48366C66.648 6.43395 66.7889 6.36174 66.9096 6.26705C67.0327 6.16998 67.1333 6.05279 67.2115 5.91548C67.292 5.7758 67.3476 5.61837 67.3784 5.44318L69.1539 5.45384C69.1232 5.7758 69.0297 6.09304 68.8734 6.40554C68.7195 6.71804 68.5076 7.00331 68.2377 7.26136C67.9679 7.51705 67.6388 7.72064 67.2505 7.87216C66.8646 8.02367 66.4219 8.09943 65.9224 8.09943C65.2643 8.09943 64.6748 7.95502 64.1539 7.66619C63.6355 7.375 63.2259 6.95123 62.9252 6.39489C62.6246 5.83854 62.4743 5.16146 62.4743 4.36364C62.4743 3.56345 62.627 2.88518 62.9324 2.32884C63.2377 1.77249 63.6509 1.34991 64.1717 1.06108C64.6925 0.772254 65.2761 0.627841 65.9224 0.627841C66.3627 0.627841 66.7699 0.689394 67.144 0.8125C67.5181 0.933238 67.8471 1.1108 68.1312 1.34517C68.4153 1.57718 68.6461 1.86245 68.8237 2.20099C69.0012 2.53954 69.1113 2.92661 69.1539 3.36222ZM77.0241 4.36364C77.0241 5.16383 76.8703 5.84209 76.5625 6.39844C76.2547 6.95478 75.8381 7.37737 75.3125 7.66619C74.7893 7.95502 74.2022 8.09943 73.5511 8.09943C72.8977 8.09943 72.3094 7.95384 71.7862 7.66264C71.263 7.37145 70.8475 6.94886 70.5398 6.39489C70.2344 5.83854 70.0817 5.16146 70.0817 4.36364C70.0817 3.56345 70.2344 2.88518 70.5398 2.32884C70.8475 1.77249 71.263 1.34991 71.7862 1.06108C72.3094 0.772254 72.8977 0.627841 73.5511 0.627841C74.2022 0.627841 74.7893 0.772254 75.3125 1.06108C75.8381 1.34991 76.2547 1.77249 76.5625 2.32884C76.8703 2.88518 77.0241 3.56345 77.0241 4.36364ZM75.2273 4.36364C75.2273 3.89015 75.1598 3.49006 75.0249 3.16335C74.8923 2.83665 74.7005 2.58925 74.4496 2.42116C74.201 2.25308 73.9015 2.16903 73.5511 2.16903C73.2031 2.16903 72.9036 2.25308 72.6527 2.42116C72.4018 2.58925 72.2088 2.83665 72.0739 3.16335C71.9413 3.49006 71.875 3.89015 71.875 4.36364C71.875 4.83712 71.9413 5.23722 72.0739 5.56392C72.2088 5.89062 72.4018 6.13802 72.6527 6.30611C72.9036 6.4742 73.2031 6.55824 73.5511 6.55824C73.9015 6.55824 74.201 6.4742 74.4496 6.30611C74.7005 6.13802 74.8923 5.89062 75.0249 5.56392C75.1598 5.23722 75.2273 4.83712 75.2273 4.36364ZM84.2401 0.727273V8H82.7486L79.8544 3.80256H79.8082V8H78.0504V0.727273H79.5632L82.4254 4.91761H82.4858V0.727273H84.2401ZM88.0336 8H85.3453V0.727273H88.03C88.771 0.727273 89.409 0.872869 89.9441 1.16406C90.4815 1.45289 90.8958 1.86955 91.187 2.41406C91.4782 2.9562 91.6238 3.60488 91.6238 4.36009C91.6238 5.11766 91.4782 5.7687 91.187 6.31321C90.8981 6.85772 90.485 7.27557 89.9476 7.56676C89.4102 7.85559 88.7722 8 88.0336 8ZM87.1032 6.50142H87.9661C88.3733 6.50142 88.7177 6.43277 88.9995 6.29545C89.2836 6.15578 89.4978 5.92969 89.6422 5.61719C89.789 5.30232 89.8624 4.88329 89.8624 4.36009C89.8624 3.83688 89.789 3.42022 89.6422 3.11009C89.4954 2.79759 89.2788 2.57268 88.9924 2.43537C88.7083 2.29569 88.3579 2.22585 87.9412 2.22585H87.1032V6.50142ZM94.4078 0.727273V8H92.65V0.727273H94.4078ZM95.2734 2.15483V0.727273H101.42V2.15483H99.2152V8H97.4822V2.15483H95.2734ZM104.037 0.727273V8H102.279V0.727273H104.037ZM112.005 4.36364C112.005 5.16383 111.851 5.84209 111.543 6.39844C111.235 6.95478 110.819 7.37737 110.293 7.66619C109.77 7.95502 109.183 8.09943 108.532 8.09943C107.878 8.09943 107.29 7.95384 106.767 7.66264C106.243 7.37145 105.828 6.94886 105.52 6.39489C105.215 5.83854 105.062 5.16146 105.062 4.36364C105.062 3.56345 105.215 2.88518 105.52 2.32884C105.828 1.77249 106.243 1.34991 106.767 1.06108C107.29 0.772254 107.878 0.627841 108.532 0.627841C109.183 0.627841 109.77 0.772254 110.293 1.06108C110.819 1.34991 111.235 1.77249 111.543 2.32884C111.851 2.88518 112.005 3.56345 112.005 4.36364ZM110.208 4.36364C110.208 3.89015 110.14 3.49006 110.005 3.16335C109.873 2.83665 109.681 2.58925 109.43 2.42116C109.181 2.25308 108.882 2.16903 108.532 2.16903C108.184 2.16903 107.884 2.25308 107.633 2.42116C107.382 2.58925 107.189 2.83665 107.054 3.16335C106.922 3.49006 106.855 3.89015 106.855 4.36364C106.855 4.83712 106.922 5.23722 107.054 5.56392C107.189 5.89062 107.382 6.13802 107.633 6.30611C107.884 6.4742 108.184 6.55824 108.532 6.55824C108.882 6.55824 109.181 6.4742 109.43 6.30611C109.681 6.13802 109.873 5.89062 110.005 5.56392C110.14 5.23722 110.208 4.83712 110.208 4.36364ZM119.221 0.727273V8H117.729L114.835 3.80256H114.789V8H113.031V0.727273H114.544L117.406 4.91761H117.466V0.727273H119.221ZM124.257 2.90767C124.233 2.64725 124.128 2.44484 123.941 2.30043C123.756 2.15365 123.492 2.08026 123.149 2.08026C122.922 2.08026 122.732 2.10985 122.581 2.16903C122.429 2.22822 122.316 2.3099 122.24 2.41406C122.164 2.51586 122.125 2.63305 122.123 2.76562C122.118 2.87453 122.139 2.97041 122.187 3.05327C122.236 3.13613 122.307 3.20952 122.4 3.27344C122.494 3.33499 122.608 3.38944 122.741 3.43679C122.873 3.48414 123.022 3.52557 123.188 3.56108L123.813 3.70312C124.173 3.78125 124.49 3.88542 124.765 4.01562C125.042 4.14583 125.274 4.3009 125.461 4.48082C125.65 4.66075 125.793 4.8679 125.89 5.10227C125.988 5.33665 126.037 5.59943 126.04 5.89062C126.037 6.34991 125.921 6.74408 125.692 7.07315C125.462 7.40223 125.132 7.65436 124.701 7.82955C124.272 8.00473 123.755 8.09233 123.149 8.09233C122.541 8.09233 122.01 8.00118 121.558 7.81889C121.106 7.6366 120.754 7.35961 120.503 6.98793C120.252 6.61624 120.123 6.14631 120.116 5.57812H121.8C121.814 5.8125 121.876 6.00781 121.988 6.16406C122.099 6.32031 122.252 6.43868 122.446 6.51918C122.642 6.59967 122.87 6.63991 123.128 6.63991C123.364 6.63991 123.566 6.60795 123.731 6.54403C123.899 6.48011 124.028 6.39134 124.118 6.2777C124.208 6.16406 124.255 6.03385 124.257 5.88707C124.255 5.74976 124.212 5.63258 124.129 5.53551C124.046 5.43608 123.918 5.35085 123.746 5.27983C123.575 5.20644 123.357 5.13897 123.092 5.07741L122.332 4.89986C121.702 4.75544 121.206 4.52225 120.844 4.20028C120.482 3.87595 120.302 3.43797 120.305 2.88636C120.302 2.43655 120.423 2.04238 120.667 1.70384C120.911 1.36529 121.248 1.10133 121.679 0.911932C122.11 0.722538 122.601 0.627841 123.153 0.627841C123.716 0.627841 124.205 0.723721 124.619 0.915483C125.036 1.10488 125.359 1.37121 125.589 1.71449C125.818 2.05777 125.935 2.45549 125.94 2.90767H124.257Z" fill="url(#paint0_linear_6622_22676)"/>
<defs>
<linearGradient id="paint0_linear_6622_22676" x1="58" y1="4" x2="124.5" y2="4" gradientUnits="userSpaceOnUse">
<stop stop-color="#47BAB3"/>
<stop offset="1" stop-color="#9BCE82"/>
</linearGradient>
</defs>
</svg>
