<svg width="36" height="9" viewBox="0 0 36 9" fill="none" xmlns="http://www.w3.org/2000/svg">
<path d="M0.3125 2.15483V0.727273H6.45952V2.15483H4.25426V8H2.52131V2.15483H0.3125ZM13.8503 4.36364C13.8503 5.16383 13.6964 5.84209 13.3887 6.39844C13.0809 6.95478 12.6642 7.37737 12.1387 7.66619C11.6155 7.95502 11.0284 8.09943 10.3773 8.09943C9.7239 8.09943 9.13559 7.95384 8.61239 7.66264C8.08919 7.37145 7.67371 6.94886 7.36594 6.39489C7.06055 5.83854 6.90785 5.16146 6.90785 4.36364C6.90785 3.56345 7.06055 2.88518 7.36594 2.32884C7.67371 1.77249 8.08919 1.34991 8.61239 1.06108C9.13559 0.772254 9.7239 0.627841 10.3773 0.627841C11.0284 0.627841 11.6155 0.772254 12.1387 1.06108C12.6642 1.34991 13.0809 1.77249 13.3887 2.32884C13.6964 2.88518 13.8503 3.56345 13.8503 4.36364ZM12.0534 4.36364C12.0534 3.89015 11.986 3.49006 11.851 3.16335C11.7185 2.83665 11.5267 2.58925 11.2757 2.42116C11.0272 2.25308 10.7277 2.16903 10.3773 2.16903C10.0293 2.16903 9.72982 2.25308 9.47887 2.42116C9.22792 2.58925 9.03498 2.83665 8.90004 3.16335C8.76746 3.49006 8.70117 3.89015 8.70117 4.36364C8.70117 4.83712 8.76746 5.23722 8.90004 5.56392C9.03498 5.89062 9.22792 6.13802 9.47887 6.30611C9.72982 6.4742 10.0293 6.55824 10.3773 6.55824C10.7277 6.55824 11.0272 6.4742 11.2757 6.30611C11.5267 6.13802 11.7185 5.89062 11.851 5.56392C11.986 5.23722 12.0534 4.83712 12.0534 4.36364ZM14.3066 2.15483V0.727273H20.4537V2.15483H18.2484V8H16.5154V2.15483H14.3066ZM21.9771 8H20.0879L22.5417 0.727273H24.8819L27.3358 8H25.4466L23.7385 2.55966H23.6816L21.9771 8ZM21.725 5.13778H25.6738V6.47301H21.725V5.13778ZM28.1188 8V0.727273H29.8766V6.57244H32.9022V8H28.1188ZM34.7887 7.18324C34.533 7.18324 34.314 7.09328 34.1317 6.91335C33.9518 6.73343 33.863 6.51562 33.8654 6.25994C33.863 6.009 33.9518 5.79474 34.1317 5.61719C34.314 5.43726 34.533 5.3473 34.7887 5.3473C35.0302 5.3473 35.2433 5.43726 35.4279 5.61719C35.6149 5.79474 35.7096 6.009 35.712 6.25994C35.7096 6.4304 35.6647 6.58546 35.5771 6.72514C35.4918 6.86482 35.3794 6.97609 35.2397 7.05895C35.1024 7.14181 34.9521 7.18324 34.7887 7.18324ZM34.7887 3.65341C34.533 3.65341 34.314 3.56345 34.1317 3.38352C33.9518 3.2036 33.863 2.9858 33.8654 2.73011C33.863 2.47917 33.9518 2.26491 34.1317 2.08736C34.314 1.90743 34.533 1.81747 34.7887 1.81747C35.0302 1.81747 35.2433 1.90743 35.4279 2.08736C35.6149 2.26491 35.7096 2.47917 35.712 2.73011C35.7096 2.90057 35.6647 3.05563 35.5771 3.19531C35.4918 3.33499 35.3794 3.44626 35.2397 3.52912C35.1024 3.61198 34.9521 3.65341 34.7887 3.65341Z" fill="url(#paint0_linear_6622_22640)"/>
<defs>
<linearGradient id="paint0_linear_6622_22640" x1="1.5" y1="4" x2="37" y2="4" gradientUnits="userSpaceOnUse">
<stop stop-color="#47BAB3"/>
<stop offset="1" stop-color="#9BCE82"/>
</linearGradient>
</defs>
</svg>
