<svg width="33" height="32" viewBox="0 0 33 32" fill="none" xmlns="http://www.w3.org/2000/svg">
<g clip-path="url(#clip0_6622_23211)">
<path d="M32.1945 6.58244C31.0811 7.07578 29.8851 7.40911 28.6278 7.55978C29.9251 6.7835 30.8957 5.56173 31.3585 4.12244C30.1396 4.84643 28.8056 5.35604 27.4145 5.62911C26.479 4.63026 25.2399 3.96821 23.8896 3.74574C22.5393 3.52327 21.1533 3.75283 19.9468 4.39878C18.7403 5.04473 17.7808 6.07093 17.2173 7.31805C16.6538 8.56517 16.5178 9.96344 16.8305 11.2958C14.3607 11.1718 11.9446 10.5298 9.73903 9.41165C7.53343 8.29346 5.58759 6.72399 4.0278 4.80511C3.49447 5.72511 3.1878 6.79178 3.1878 7.92778C3.1872 8.95044 3.43904 9.95743 3.92097 10.8594C4.4029 11.7614 5.10001 12.5305 5.95047 13.0984C4.96417 13.0671 3.99963 12.8006 3.13713 12.3211V12.4011C3.13703 13.8354 3.63318 15.2256 4.54138 16.3358C5.44958 17.4459 6.7139 18.2077 8.1198 18.4918C7.20484 18.7394 6.24558 18.7759 5.31447 18.5984C5.71113 19.8326 6.48379 20.9118 7.52429 21.685C8.56479 22.4582 9.82102 22.8867 11.1171 22.9104C8.91691 24.6377 6.19965 25.5746 3.40247 25.5704C2.90697 25.5706 2.4119 25.5416 1.9198 25.4838C4.7591 27.3093 8.06425 28.2782 11.4398 28.2744C22.8665 28.2744 29.1131 18.8104 29.1131 10.6024C29.1131 10.3358 29.1065 10.0664 29.0945 9.79978C30.3095 8.92108 31.3583 7.83297 32.1918 6.58644L32.1945 6.58244Z" fill="#78909C"/>
</g>
<defs>
<clipPath id="clip0_6622_23211">
<rect width="32" height="32" fill="white" transform="translate(0.67041)"/>
</clipPath>
</defs>
</svg>
