<svg width="24" height="20" viewBox="0 0 24 20" fill="none" xmlns="http://www.w3.org/2000/svg">
<path d="M23.1435 2.93708C22.3085 3.30708 21.4115 3.55708 20.4685 3.67008C21.4415 3.08787 22.1694 2.17154 22.5165 1.09208C21.6023 1.63507 20.6018 2.01727 19.5585 2.22208C18.8569 1.47294 17.9276 0.976403 16.9148 0.809551C15.9021 0.642699 14.8626 0.814868 13.9577 1.29933C13.0529 1.78379 12.3333 2.55344 11.9107 3.48878C11.488 4.42412 11.386 5.47283 11.6205 6.47208C9.76819 6.37907 7.95613 5.89763 6.30192 5.05898C4.64772 4.22034 3.18834 3.04324 2.0185 1.60408C1.6185 2.29408 1.3885 3.09408 1.3885 3.94608C1.38805 4.71307 1.57693 5.46832 1.93838 6.14481C2.29982 6.8213 2.82266 7.39812 3.4605 7.82408C2.72078 7.80054 1.99737 7.60066 1.3505 7.24108V7.30108C1.35043 8.37682 1.72253 9.41945 2.40368 10.2521C3.08483 11.0847 4.03307 11.656 5.0875 11.8691C4.40128 12.0548 3.68184 12.0821 2.9835 11.9491C3.281 12.8747 3.8605 13.6841 4.64087 14.264C5.42124 14.8439 6.36342 15.1653 7.3355 15.1831C5.68533 16.4785 3.64739 17.1812 1.5495 17.1781C1.17788 17.1782 0.806576 17.1565 0.4375 17.1131C2.56698 18.4823 5.04584 19.2089 7.5775 19.2061C16.1475 19.2061 20.8325 12.1081 20.8325 5.95208C20.8325 5.75208 20.8275 5.55008 20.8185 5.35008C21.7298 4.69105 22.5164 3.87497 23.1415 2.94008L23.1435 2.93708Z" fill="#B0BEC5"/>
</svg>
