<svg width="33" height="32" viewBox="0 0 33 32" fill="none" xmlns="http://www.w3.org/2000/svg">
<path d="M29.7875 8.72481C29.6726 8.26396 29.4477 7.83785 29.132 7.48299C28.8163 7.12812 28.4193 6.8551 27.975 6.68731C23.7 5.03731 16.875 5.04981 16.5 5.04981C16.125 5.04981 9.3 5.03731 5.025 6.68731C4.58068 6.8551 4.18366 7.12812 3.86799 7.48299C3.55231 7.83785 3.32739 8.26396 3.2125 8.72481C2.8875 9.96231 2.5 12.2373 2.5 15.9998C2.5 19.7623 2.8875 22.0373 3.2125 23.2748C3.32739 23.7357 3.55231 24.1618 3.86799 24.5166C4.18366 24.8715 4.58068 25.1445 5.025 25.3123C9.125 26.8998 15.55 26.9498 16.4125 26.9498H16.5875C17.45 26.9498 23.875 26.8998 27.975 25.3123C28.4193 25.1445 28.8163 24.8715 29.132 24.5166C29.4477 24.1618 29.6726 23.7357 29.7875 23.2748C30.1125 22.0373 30.5 19.7623 30.5 15.9998C30.5 12.2373 30.1125 9.96231 29.7875 8.72481ZM20.775 16.4123L14.775 20.4123C14.6954 20.4709 14.5988 20.5016 14.5 20.4998C14.4172 20.4967 14.3361 20.4754 14.2625 20.4373C14.1826 20.3957 14.1158 20.3329 14.0694 20.2556C14.0231 20.1784 13.9991 20.0899 14 19.9998V11.9998C13.9991 11.9098 14.0231 11.8212 14.0694 11.744C14.1158 11.6667 14.1826 11.6039 14.2625 11.5623C14.3422 11.5198 14.432 11.4997 14.5222 11.5041C14.6124 11.5085 14.6998 11.5372 14.775 11.5873L20.775 15.5873C20.8447 15.6312 20.9022 15.6921 20.942 15.7642C20.9818 15.8364 21.0027 15.9174 21.0027 15.9998C21.0027 16.0822 20.9818 16.1633 20.942 16.2354C20.9022 16.3075 20.8447 16.3684 20.775 16.4123Z" fill="#78909C"/>
</svg>
