<svg width="21" height="16" viewBox="0 0 21 16" fill="none" xmlns="http://www.w3.org/2000/svg">
<path d="M20.5617 2.93984C20.4422 2.49462 20.2078 2.0886 19.882 1.76243C19.5563 1.43625 19.1505 1.20136 18.7055 1.08125C17.0672 0.640625 10.5 0.640625 10.5 0.640625C10.5 0.640625 3.93281 0.640625 2.29453 1.07891C1.84927 1.19862 1.44334 1.43339 1.11751 1.75962C0.791688 2.08586 0.557436 2.49208 0.438281 2.9375C-8.9407e-08 4.57812 0 8 0 8C0 8 -8.9407e-08 11.4219 0.438281 13.0602C0.679687 13.9648 1.39219 14.6773 2.29453 14.9188C3.93281 15.3594 10.5 15.3594 10.5 15.3594C10.5 15.3594 17.0672 15.3594 18.7055 14.9188C19.6102 14.6773 20.3203 13.9648 20.5617 13.0602C21 11.4219 21 8 21 8C21 8 21 4.57813 20.5617 2.93984ZM8.41406 11.1406V4.85938L13.8516 7.97656L8.41406 11.1406Z" fill="#B0BEC5"/>
</svg>
