<svg width="24" height="24" viewBox="0 0 24 24" fill="none" xmlns="http://www.w3.org/2000/svg">
<g clip-path="url(#clip0_527_476)">
<path d="M6.54547 18.9262V11.2389L4.14898 9.05781L2 7.84747V17.5696C2 18.3202 2.61133 18.9262 3.36367 18.9262H6.54547Z" fill="#4285F4"/>
<path d="M17.4545 18.9262H20.6363C21.3909 18.9262 22 18.3179 22 17.5696V7.84753L19.5659 9.23383L17.4545 11.2389V18.9262Z" fill="#34A853"/>
<path d="M6.54545 11.2389L6.21936 8.23521L6.54545 5.36041L12 9.43015L17.4545 5.36041L17.8193 8.08L17.4545 11.2389L12 15.3086L6.54545 11.2389Z" fill="#EA4335"/>
<path d="M17.4545 5.36042V11.2389L22 7.84747V6.03869C22 4.36109 20.075 3.40475 18.7273 4.41084L17.4545 5.36042Z" fill="#FBBC04"/>
<path d="M2 7.84747L4.09055 9.40732L6.54547 11.2389V5.36043L5.27266 4.41084C3.92266 3.40467 2 4.3611 2 6.03861V7.84739V7.84747Z" fill="#C5221F"/>
</g>
<defs>
<clipPath id="clip0_527_476">
<rect width="20" height="15" fill="white" transform="translate(2 4)"/>
</clipPath>
</defs>
</svg>
