<svg width="24" height="24" viewBox="0 0 24 24" fill="none" xmlns="http://www.w3.org/2000/svg">
<path d="M12.0402 2.00006C6.55276 2.00006 2.0804 6.45005 2.0804 11.91C2.0804 13.66 2.54271 15.36 3.40704 16.86L2 22L7.27638 20.62C8.73367 21.41 10.3719 21.83 12.0402 21.83C17.5276 21.83 22 17.38 22 11.92C22 9.27004 20.9648 6.78005 19.0854 4.91005C18.164 3.98398 17.0665 3.24972 15.8569 2.75011C14.6473 2.25049 13.3499 1.99552 12.0402 2.00006ZM12.0503 3.67005C14.2613 3.67005 16.3317 4.53005 17.8995 6.09005C18.669 6.8554 19.279 7.76436 19.6946 8.7648C20.1103 9.76524 20.3233 10.8375 20.3216 11.92C20.3216 16.46 16.603 20.15 12.0402 20.15C10.5528 20.15 9.09548 19.76 7.82915 19L7.52764 18.83L4.39196 19.65L5.22613 16.61L5.02513 16.29C4.19491 14.9787 3.75579 13.4598 3.75879 11.91C3.76884 7.37004 7.47739 3.67005 12.0503 3.67005ZM8.51256 7.33004C8.35176 7.33004 8.0804 7.39004 7.84925 7.64004C7.62814 7.89004 6.97487 8.50004 6.97487 9.71004C6.97487 10.93 7.86935 12.1 7.9799 12.27C8.1206 12.44 9.74874 14.94 12.2513 16C12.8442 16.27 13.3065 16.42 13.6683 16.53C14.2613 16.72 14.804 16.69 15.2362 16.63C15.7186 16.56 16.7035 16.03 16.9146 15.45C17.1256 14.87 17.1256 14.38 17.0653 14.27C16.995 14.17 16.8342 14.11 16.5829 14C16.3317 13.86 15.1055 13.26 14.8844 13.18C14.6533 13.1 14.5126 13.06 14.3216 13.3C14.1608 13.55 13.6784 14.11 13.5377 14.27C13.3869 14.44 13.2462 14.46 13.005 14.34C12.7437 14.21 11.9397 13.95 10.995 13.11C10.2513 12.45 9.75879 11.64 9.60804 11.39C9.48744 11.15 9.59799 11 9.71859 10.89C9.82914 10.78 9.98995 10.6 10.0905 10.45C10.2211 10.31 10.2613 10.2 10.3417 10.04C10.4221 9.87004 10.3819 9.73004 10.3216 9.61004C10.2613 9.50004 9.75879 8.26004 9.54774 7.77004C9.34673 7.29004 9.14573 7.35004 8.98492 7.34004C8.84422 7.34004 8.68342 7.33004 8.51256 7.33004Z" fill="#25D366"/>
<path d="M21 12C21 4.8 14.6667 2.66667 11.5 2.5C1.90005 4.9 2.50005 13.1667 4.00005 17L3.50005 20.5L7.50005 19.5L11.5 21C14.6667 21 21 19.2 21 12Z" fill="#25D366"/>
<path d="M8.53006 7.33006C8.37006 7.33006 8.10006 7.39006 7.87006 7.64006C7.65006 7.89006 7.00006 8.50006 7.00006 9.71006C7.00006 10.9301 7.89006 12.1001 8.00006 12.2701C8.14006 12.4401 9.76006 14.9401 12.2501 16.0001C12.8401 16.2701 13.3001 16.4201 13.6601 16.5301C14.2501 16.7201 14.7901 16.6901 15.2201 16.6301C15.7001 16.5601 16.6801 16.0301 16.8901 15.4501C17.1001 14.8701 17.1001 14.3801 17.0401 14.2701C16.9701 14.1701 16.8101 14.1101 16.5601 14.0001C16.3101 13.8601 15.0901 13.2601 14.8701 13.1801C14.6401 13.1001 14.5001 13.0601 14.3101 13.3001C14.1501 13.5501 13.6701 14.1101 13.5301 14.2701C13.3801 14.4401 13.2401 14.4601 13.0001 14.3401C12.7401 14.2101 11.9401 13.9501 11.0001 13.1101C10.2601 12.4501 9.77006 11.6401 9.62006 11.3901C9.50006 11.1501 9.61006 11.0001 9.73006 10.8901C9.84006 10.7801 10.0001 10.6001 10.1001 10.4501C10.2301 10.3101 10.2701 10.2001 10.3501 10.0401C10.4301 9.87006 10.3901 9.73006 10.3301 9.61006C10.2701 9.50006 9.77006 8.26006 9.56006 7.77006C9.36006 7.29006 9.16006 7.35006 9.00006 7.34006C8.86006 7.34006 8.70006 7.33006 8.53006 7.33006Z" fill="white"/>
</svg>
